<?xml version="1.0" encoding="UTF-8"?>
<svg version="1.1" xmlns="http://www.w3.org/2000/svg" width="512" height="512">
<path d="M0 0 C0.96594086 0.00054382 1.93188171 0.00108765 2.92709351 0.00164795 C27.00051709 0.06377163 49.60532037 3.40415633 72.6875 10.375 C73.94022705 10.75132568 73.94022705 10.75132568 75.21826172 11.13525391 C101.96506509 19.37278198 126.80877293 32.99977734 148.6875 50.375 C149.56019531 51.055625 150.43289063 51.73625 151.33203125 52.4375 C201.35939357 92.28359825 232.53240523 150.28331665 240.21801758 213.59448242 C240.73750499 218.37693313 240.88190062 223.12191611 240.92578125 227.9296875 C240.9355751 228.82070663 240.94536896 229.71172577 240.95545959 230.62974548 C241.23635649 262.83010861 237.05794208 291.52493969 227.6875 322.375 C228.31454834 322.67446533 228.94159668 322.97393066 229.58764648 323.2824707 C231.85501962 324.46215851 233.09303809 325.63158706 234.75 327.5625 C235.23597656 328.11292969 235.72195313 328.66335938 236.22265625 329.23046875 C240.89684802 336.0734855 241.12917407 342.02378781 241.10742188 350.1184082 C241.11589142 351.2835495 241.12436096 352.4486908 241.13308716 353.6491394 C241.156439 357.49146516 241.15747961 361.33338997 241.15625 365.17578125 C241.16155673 367.17715626 241.16687039 369.17853139 241.17311716 371.17990369 C241.19231748 377.47015196 241.19524784 383.76026757 241.18847656 390.05053711 C241.18184218 396.5178171 241.20468285 402.98452583 241.24179029 409.45169002 C241.27258615 415.02309979 241.28383658 420.59432675 241.27995348 426.16581982 C241.27789564 429.48506368 241.28548137 432.80376662 241.30784607 436.1229496 C241.3300752 439.8302247 241.32031104 443.53613623 241.30273438 447.2434082 C241.31599762 448.32789749 241.32926086 449.41238678 241.34292603 450.52973938 C241.24395796 459.55121681 238.55597961 466.55419457 232.4375 473.25 C225.63214959 479.34054496 218.57461333 480.97222491 209.63760376 480.88293457 C208.17844026 480.89229451 208.17844026 480.89229451 206.68979871 480.90184355 C203.45001183 480.91771924 200.21098305 480.90518948 196.97119141 480.89257812 C194.63931339 480.89800227 192.3074388 480.90512657 189.97557068 480.91381836 C183.6500267 480.93203779 177.32474407 480.92498482 170.99919558 480.91230202 C165.02823539 480.90317698 159.05729872 480.91015847 153.08633916 480.9160108 C140.51692084 480.92740927 127.94761928 480.9143228 115.37822013 480.89280933 C104.65085079 480.87501381 93.9236551 480.87798117 83.19628906 480.89648438 C70.69709657 480.91803413 58.19800703 480.9262324 45.69879854 480.91403532 C39.09894575 480.90776742 32.49918882 480.90682801 25.89934158 480.92018127 C19.67261441 480.93189816 13.44620804 480.92343072 7.21951485 480.90060425 C4.95714788 480.89539631 2.69475305 480.89669135 0.43239784 480.90565491 C-64.62870237 481.13927292 -125.18258044 454.90104769 -171.3125 409.375 C-206.36681255 374.3319953 -229.71710777 327.27904777 -237.3125 278.375 C-237.48910156 277.25053467 -237.66570312 276.12606934 -237.84765625 274.9675293 C-239.4500906 263.66249807 -239.71174147 252.46958054 -239.6875 241.0625 C-239.68695618 240.09655914 -239.68641235 239.13061829 -239.68585205 238.13540649 C-239.64482791 222.23822306 -238.72007363 206.9554432 -235.3125 191.375 C-235.09819336 190.38886719 -234.88388672 189.40273437 -234.66308594 188.38671875 C-226.77584203 153.34760901 -211.66909769 120.52623054 -189.3125 92.375 C-188.631875 91.50230469 -187.95125 90.62960938 -187.25 89.73046875 C-150.15887768 43.16201922 -96.24228473 11.52751087 -37.3125 2.375 C-36.18803467 2.19839844 -35.06356934 2.02179687 -33.9050293 1.83984375 C-22.59999807 0.2374094 -11.40708054 -0.02424147 0 0 Z M-97.3125 57.375 C-97.91835937 57.69726562 -98.52421875 58.01953125 -99.1484375 58.3515625 C-120.41629388 69.77490894 -141.05337736 85.57473075 -156.3125 104.375 C-157.20023012 105.42732864 -158.08828115 106.47938661 -158.9765625 107.53125 C-170.89405157 121.83223688 -180.52785891 137.48143406 -188.3125 154.375 C-188.84359375 155.509375 -189.3746875 156.64375 -189.921875 157.8125 C-199.81754562 179.84822015 -206.3773678 204.97881611 -206.515625 229.203125 C-206.52263931 230.02586914 -206.52965363 230.84861328 -206.53688049 231.69628906 C-206.55430527 234.33924887 -206.56073336 236.98198485 -206.5625 239.625 C-206.56317474 240.5264978 -206.56384949 241.42799561 -206.56454468 242.35681152 C-206.54915726 255.26785797 -206.21552685 267.74329292 -203.3125 280.375 C-203.05509033 281.56899414 -203.05509033 281.56899414 -202.79248047 282.78710938 C-194.92818376 318.91086728 -178.6093024 352.06770226 -153.3203125 379.21484375 C-151.43762006 381.24038639 -149.65512939 383.32204391 -147.875 385.4375 C-131.15763681 404.52124794 -108.15646827 418.84838326 -85.3125 429.375 C-84.178125 429.90609375 -83.04375 430.4371875 -81.875 430.984375 C-66.93827443 437.69207121 -47.87634426 445.375 -31.3125 445.375 C-31.3125 440.425 -31.3125 435.475 -31.3125 430.375 C-34.4371875 429.6634375 -34.4371875 429.6634375 -37.625 428.9375 C-55.87546571 424.48573431 -73.90081926 418.5824491 -90.3125 409.375 C-91.50586222 408.73186871 -92.69987562 408.08994426 -93.89453125 407.44921875 C-134.01893474 385.59820615 -162.80403089 349.5193409 -179.3125 307.375 C-179.57401855 306.71322754 -179.83553711 306.05145508 -180.10498047 305.36962891 C-186.58465757 288.61959614 -190.37124719 269.64544171 -190.55078125 251.6875 C-190.56052979 250.87560211 -190.57027832 250.06370422 -190.58032227 249.22720337 C-190.75173951 231.24789129 -190.50155732 213.9627519 -186.3125 196.375 C-186.14121582 195.6025293 -185.96993164 194.83005859 -185.79345703 194.03417969 C-174.80019611 145.1400413 -142.11131933 103.45533578 -100.37890625 76.8359375 C-89.54865299 70.12273506 -78.16158642 65.01643638 -66.3125 60.375 C-65.65072754 60.11348145 -64.98895508 59.85196289 -64.30712891 59.58251953 C-47.55709669 53.10284264 -28.58294134 49.31625161 -10.625 49.13671875 C-9.40708519 49.12209595 -9.40708519 49.12209595 -8.16456604 49.10717773 C9.77160952 48.93617889 27.16125245 49.05379502 44.6875 53.375 C45.47012207 53.56755371 46.25274414 53.76010742 47.05908203 53.95849609 C52.0100204 55.22290259 56.85508187 56.71786281 61.6875 58.375 C62.35152832 58.59913574 63.01555664 58.82327148 63.69970703 59.05419922 C110.22176264 74.96579777 149.13788436 108.70534961 171.6875 152.375 C174.99254278 159.24828428 177.9066455 166.27577843 180.6875 173.375 C180.94901855 174.03677246 181.21053711 174.69854492 181.47998047 175.38037109 C187.95965736 192.13040331 191.74624839 211.10455866 191.92578125 229.0625 C191.93552979 229.87444321 191.94527832 230.68638641 191.95532227 231.52293396 C192.22944944 260.27630497 188.6706057 285.74027673 178.60546875 312.71484375 C177.57876514 315.22108487 177.57876514 315.22108487 177.6875 317.375 C182.9675 317.375 188.2475 317.375 193.6875 317.375 C201.29923986 296.23967269 207.69835549 274.36005765 207.92578125 251.72265625 C207.9355751 250.91362854 207.94536896 250.10460083 207.95545959 249.27105713 C208.32166751 211.14259212 201.77127691 176.19580415 183.6875 142.375 C183.36523438 141.76914063 183.04296875 141.16328125 182.7109375 140.5390625 C171.28759106 119.27120612 155.48776925 98.63412264 136.6875 83.375 C135.63517136 82.48726988 134.58311339 81.59921885 133.53125 80.7109375 C119.23026312 68.79344843 103.58106594 59.15964109 86.6875 51.375 C85.553125 50.84390625 84.41875 50.3128125 83.25 49.765625 C25.63001401 23.88998314 -41.98954488 27.79415461 -97.3125 57.375 Z M-112.94384766 127.95849609 C-133.96404554 149.0959433 -148.61400535 176.40011616 -155.3125 205.375 C-155.55806641 206.36113281 -155.55806641 206.36113281 -155.80859375 207.3671875 C-160.89329663 228.29431177 -160.6851177 254.53921957 -155.3125 275.375 C-155.13557617 276.07786133 -154.95865234 276.78072266 -154.77636719 277.50488281 C-143.98920374 319.29349701 -118.12487029 355.79734892 -80.77734375 377.87353516 C-66.7800339 385.82915966 -47.84663212 396.375 -31.3125 396.375 C-31.31107498 395.6705777 -31.30964996 394.9661554 -31.30818176 394.24038696 C-31.29026163 387.56206229 -31.2483842 380.88435166 -31.18040943 374.20633888 C-31.14629543 370.77402851 -31.12105412 367.34215581 -31.11694336 363.90966797 C-31.11179802 359.95240334 -31.0665262 355.99605945 -31.01953125 352.0390625 C-31.0234639 350.82199615 -31.02739655 349.60492981 -31.03144836 348.35098267 C-30.86567787 338.5578177 -28.63020695 331.34151992 -21.5 324.4375 C-13.60501478 317.58620152 -4.5257205 317.93039606 5.36523438 317.94262695 C6.84423638 317.9335992 8.32323093 317.9232695 9.80221558 317.91174316 C13.79750221 317.88426587 17.79264652 317.87490133 21.78801537 317.86888909 C25.97075366 317.85948118 30.15338665 317.83327589 34.33605957 317.80888367 C42.24769927 317.76528132 50.15931845 317.73669594 58.07104158 317.71356028 C67.08199918 317.68647496 76.09285051 317.64256554 85.10373211 317.59727156 C103.63159857 317.50451506 122.15949314 317.43279322 140.6875 317.375 C142.13427333 314.36843785 143.57360294 311.3583679 145.01171875 308.34765625 C145.41741089 307.50481079 145.82310303 306.66196533 146.24108887 305.7935791 C156.06585791 285.18200123 159.91950123 263.67936466 159.9375 241 C159.93817474 240.23833527 159.93884949 239.47667053 159.93954468 238.69192505 C159.9235684 227.34772424 159.53179989 216.40560208 156.6875 205.375 C156.51057617 204.67213867 156.33365234 203.96927734 156.15136719 203.24511719 C145.37765931 161.50862881 119.67882864 125.32972689 82.48706055 103.19189453 C18.32590368 66.09294874 -59.82938344 76.40201376 -112.94384766 127.95849609 Z M21.44140625 355.72567749 C20.51544433 357.60486748 19.59685699 359.48771879 18.6875 361.375 C15.0585982 366.00838206 11.14065912 368.81497397 5.953125 371.57421875 C4.96602539 372.10233154 3.97892578 372.63044434 2.96191406 373.17456055 C2.21135742 373.57070557 1.46080078 373.96685059 0.6875 374.375 C0.38247179 381.22401306 0.1728133 388.07127131 0.02832031 394.92553711 C-0.03191968 397.2549787 -0.11373701 399.58396846 -0.21777344 401.91186523 C-1.44650693 414.94055442 -1.44650693 414.94055442 3.25610352 426.34179688 C6.37042524 428.23462179 6.37042524 428.23462179 9.65551758 429.29321289 C16.30919721 431.66719264 20.02994337 438.092427 23.30102539 444.03759766 C23.74869766 444.84943512 24.19636993 445.66127258 24.65760803 446.49771118 C24.99747238 447.11721649 25.33733673 447.7367218 25.6875 448.375 C46.16686938 448.65541898 66.64584888 448.86697708 87.12674046 448.99674606 C96.63666041 449.05860446 106.14538708 449.14292145 115.65454102 449.28027344 C123.9435933 449.3999449 132.23178149 449.47731219 140.52167362 449.50406194 C144.91101529 449.51969842 149.29788526 449.55638656 153.68643379 449.64376068 C157.81997927 449.72538896 161.95004324 449.75031131 166.08431816 449.73229218 C167.59898712 449.73558659 169.11377552 449.75937298 170.62774658 449.8054657 C175.18574086 449.93739545 179.32311966 449.88326606 183.6875 448.375 C186.24766141 445.52602461 187.73067593 442.88511434 189.26684475 439.38545609 C193.09245445 431.27875321 201.1729679 427.54974005 208.6875 423.375 C208.6875 407.205 208.6875 391.035 208.6875 374.375 C205.7175 372.725 202.7475 371.075 199.6875 369.375 C194.25916683 365.5115917 190.75917565 361.69273895 187.86328125 355.69052124 C185.65368052 352.17679043 184.53601654 350.65369535 180.5546875 349.34602737 C176.4994483 348.93847391 172.56920049 348.88580231 168.5 348.95166016 C166.95364406 348.93674037 165.40732725 348.91714647 163.86108398 348.89324951 C159.6742316 348.84321986 155.49036951 348.86248519 151.3034668 348.89741945 C146.91577287 348.92533441 142.52832935 348.89942334 138.140625 348.88217163 C130.77297129 348.86217699 123.40653171 348.88848185 116.0390625 348.94091797 C107.52943634 349.00078497 99.022709 348.98139214 90.51315308 348.92082751 C83.19806157 348.87085464 75.88384114 348.86389072 68.56863403 348.89265287 C64.20347598 348.90977431 59.83967911 348.91217233 55.47460938 348.8757515 C51.36924081 348.84388815 47.26759557 348.86614665 43.16262817 348.92958832 C41.65949683 348.94409106 40.15605012 348.94002433 38.65304565 348.91569901 C31.08900574 348.80459682 25.82774976 348.82910657 21.44140625 355.72567749 Z " fill="#6B4FE1" transform="translate(255.3125,15.625)"/>
<path d="M0 0 C4.35738903 2.27301029 6.68988626 5.02328139 8.9296875 9.31640625 C9.25681428 12.38705573 8.92732133 15.31970963 8.58691406 18.38037109 C8.42438032 20.24147082 8.26412105 22.10277019 8.10580444 23.9642334 C8.01606731 24.94953537 7.92633018 25.93483734 7.83387375 26.94999695 C1.90266093 79.79751239 1.90266093 79.79751239 20.52278137 127.1325798 C31.19539966 139.38242737 43.8509397 150.14932162 57.07803345 159.56433105 C57.6506126 159.97565088 58.22319176 160.38697071 58.8131218 160.81075478 C60.34668755 161.90028862 61.89754962 162.96536458 63.44967651 164.02828979 C67.33737823 167.61517482 68.70855011 171.57889821 69.3671875 176.75390625 C68.62215123 182.82063019 66.6757028 186.9267206 61.8671875 190.75390625 C57.31580816 193.17485271 54.0687572 193.73764147 48.9296875 193.31640625 C43.00786281 191.15077452 38.7204375 187.68241356 34.36181641 183.234375 C33.7591394 182.63549469 33.1564624 182.03661438 32.53552246 181.41958618 C30.56588527 179.45729851 28.61092135 177.48109292 26.65625 175.50390625 C25.28315091 174.1284202 23.90930864 172.75367568 22.53475952 171.37963867 C19.66584878 168.50760995 16.80375181 165.62901896 13.94677734 162.74511719 C10.28511677 159.04938232 6.6103318 155.36704642 2.93084145 151.68907166 C0.0975584 148.85524496 -2.73048405 146.01623764 -5.55678177 143.17544556 C-6.91037913 141.81548806 -8.26518749 140.45673478 -9.62122726 139.09921265 C-11.51217781 137.20392634 -13.39639808 135.3022012 -15.27880859 133.3984375 C-16.11878891 132.55981674 -16.11878891 132.55981674 -16.97573853 131.70425415 C-21.16717481 127.443106 -23.31337721 124.57465965 -23.33773804 118.54788208 C-23.34626801 117.59184082 -23.35479797 116.63579956 -23.36358643 115.65078735 C-23.36268005 114.60861053 -23.36177368 113.56643372 -23.36083984 112.49267578 C-23.36755707 111.38982239 -23.37427429 110.28696899 -23.38119507 109.1506958 C-23.4002134 105.50015779 -23.4041012 101.84980324 -23.40625 98.19921875 C-23.41267512 95.66340051 -23.41940327 93.12758302 -23.42642212 90.59176636 C-23.43840441 85.27388491 -23.44218755 79.95607193 -23.44091797 74.63818359 C-23.4397168 68.49872623 -23.46081518 62.35962055 -23.4924053 56.22025216 C-23.52174673 50.3063797 -23.52889307 44.3926143 -23.52769852 38.4786644 C-23.53005958 35.96604857 -23.53891138 33.45343017 -23.55436325 30.94086075 C-23.57395191 27.42658532 -23.56821234 23.9132157 -23.55615234 20.39892578 C-23.56739136 19.36079742 -23.57863037 18.32266907 -23.59020996 17.25308228 C-23.53809657 11.27899848 -23.0267227 7.88004328 -19.0703125 3.31640625 C-13.79042869 -1.32349165 -6.65677511 -2.19799178 0 0 Z " fill="#6E51E1" transform="translate(263.0703125,138.68359375)"/>
<path d="M0 0 C6.77549394 3.97184128 10.87870843 8.97266027 13.02734375 16.55078125 C14.80904733 25.54764811 13.17199606 32.28999239 8.21484375 39.9140625 C4.53915445 44.72624627 0.384369 47.48139705 -5.5 48.9375 C-14.50605433 50.05404007 -22.05189012 49.36927074 -29.5 43.9375 C-34.98530012 39.13931815 -37.95066315 33.51530704 -38.81640625 26.30078125 C-39.17346049 18.04246222 -36.82531543 12.49386478 -32.375 5.6875 C-23.46390683 -2.83615433 -11.42808858 -5.18050401 0 0 Z " fill="#4836E3" transform="translate(372.5,391.0625)"/>
</svg>
